<svg aria-roledescription="class" role="graphics-document document" viewBox="-8 -8 514.865234375 694.265625" style="max-width: 514.865234375px;" class="classDiagram" xmlns="http://www.w3.org/2000/svg" width="100%" id="mermaidSvgId"><style>#mermaidSvgId{font-family:"trebuchet ms",verdana,arial,sans-serif;font-size:16px;fill:#0a0f14;}@keyframes edge-animation-frame{from{stroke-dashoffset:0;}}@keyframes dash{to{stroke-dashoffset:0;}}#mermaidSvgId .edge-animation-slow{stroke-dasharray:9,5!important;stroke-dashoffset:900;animation:dash 50s linear infinite;stroke-linecap:round;}#mermaidSvgId .edge-animation-fast{stroke-dasharray:9,5!important;stroke-dashoffset:900;animation:dash 20s linear infinite;stroke-linecap:round;}#mermaidSvgId .error-icon{fill:#ffebee;}#mermaidSvgId .error-text{fill:#c62828;stroke:#c62828;}#mermaidSvgId .edge-thickness-normal{stroke-width:1px;}#mermaidSvgId .edge-thickness-thick{stroke-width:3.5px;}#mermaidSvgId .edge-pattern-solid{stroke-dasharray:0;}#mermaidSvgId .edge-thickness-invisible{stroke-width:0;fill:none;}#mermaidSvgId .edge-pattern-dashed{stroke-dasharray:3;}#mermaidSvgId .edge-pattern-dotted{stroke-dasharray:2;}#mermaidSvgId .marker{fill:#0a0f14;stroke:#0a0f14;}#mermaidSvgId .marker.cross{stroke:#0a0f14;}#mermaidSvgId svg{font-family:"trebuchet ms",verdana,arial,sans-serif;font-size:16px;}#mermaidSvgId p{margin:0;}#mermaidSvgId g.classGroup text{fill:#1a468b;stroke:none;font-family:"trebuchet ms",verdana,arial,sans-serif;font-size:10px;}#mermaidSvgId g.classGroup text .title{font-weight:bolder;}#mermaidSvgId .nodeLabel,#mermaidSvgId .edgeLabel{color:#0a0f14;}#mermaidSvgId .edgeLabel .label rect{fill:#ffffff;}#mermaidSvgId .label text{fill:#0a0f14;}#mermaidSvgId .labelBkg{background:#ffffff;}#mermaidSvgId .edgeLabel .label span{background:#ffffff;}#mermaidSvgId .classTitle{font-weight:bolder;}#mermaidSvgId .node rect,#mermaidSvgId .node circle,#mermaidSvgId .node ellipse,#mermaidSvgId .node polygon,#mermaidSvgId .node path{fill:#ffffff;stroke:#1a468b;stroke-width:1px;}#mermaidSvgId .divider{stroke:#1a468b;stroke-width:1;}#mermaidSvgId g.clickable{cursor:pointer;}#mermaidSvgId g.classGroup rect{fill:#ffffff;stroke:#1a468b;}#mermaidSvgId g.classGroup line{stroke:#1a468b;stroke-width:1;}#mermaidSvgId .classLabel .box{stroke:none;stroke-width:0;fill:#ffffff;opacity:0.5;}#mermaidSvgId .classLabel .label{fill:#1a468b;font-size:10px;}#mermaidSvgId .relation{stroke:#0a0f14;stroke-width:1;fill:none;}#mermaidSvgId .dashed-line{stroke-dasharray:3;}#mermaidSvgId .dotted-line{stroke-dasharray:1 2;}#mermaidSvgId #compositionStart,#mermaidSvgId .composition{fill:#0a0f14!important;stroke:#0a0f14!important;stroke-width:1;}#mermaidSvgId #compositionEnd,#mermaidSvgId .composition{fill:#0a0f14!important;stroke:#0a0f14!important;stroke-width:1;}#mermaidSvgId #dependencyStart,#mermaidSvgId .dependency{fill:#0a0f14!important;stroke:#0a0f14!important;stroke-width:1;}#mermaidSvgId #dependencyStart,#mermaidSvgId .dependency{fill:#0a0f14!important;stroke:#0a0f14!important;stroke-width:1;}#mermaidSvgId #extensionStart,#mermaidSvgId .extension{fill:transparent!important;stroke:#0a0f14!important;stroke-width:1;}#mermaidSvgId #extensionEnd,#mermaidSvgId .extension{fill:transparent!important;stroke:#0a0f14!important;stroke-width:1;}#mermaidSvgId #aggregationStart,#mermaidSvgId .aggregation{fill:transparent!important;stroke:#0a0f14!important;stroke-width:1;}#mermaidSvgId #aggregationEnd,#mermaidSvgId .aggregation{fill:transparent!important;stroke:#0a0f14!important;stroke-width:1;}#mermaidSvgId #lollipopStart,#mermaidSvgId .lollipop{fill:#ffffff!important;stroke:#0a0f14!important;stroke-width:1;}#mermaidSvgId #lollipopEnd,#mermaidSvgId .lollipop{fill:#ffffff!important;stroke:#0a0f14!important;stroke-width:1;}#mermaidSvgId .edgeTerminals{font-size:11px;line-height:initial;}#mermaidSvgId .classTitleText{text-anchor:middle;font-size:18px;fill:#0a0f14;}#mermaidSvgId :root{--mermaid-font-family:"trebuchet ms",verdana,arial,sans-serif;}</style><g><defs><marker orient="auto" markerHeight="240" markerWidth="190" refY="7" refX="18" class="marker aggregation class" id="mermaidSvgId_class-aggregationStart"><path d="M 18,7 L9,13 L1,7 L9,1 Z"></path></marker></defs><defs><marker orient="auto" markerHeight="28" markerWidth="20" refY="7" refX="1" class="marker aggregation class" id="mermaidSvgId_class-aggregationEnd"><path d="M 18,7 L9,13 L1,7 L9,1 Z"></path></marker></defs><defs><marker orient="auto" markerHeight="240" markerWidth="190" refY="7" refX="18" class="marker extension class" id="mermaidSvgId_class-extensionStart"><path d="M 1,7 L18,13 V 1 Z"></path></marker></defs><defs><marker orient="auto" markerHeight="28" markerWidth="20" refY="7" refX="1" class="marker extension class" id="mermaidSvgId_class-extensionEnd"><path d="M 1,1 V 13 L18,7 Z"></path></marker></defs><defs><marker orient="auto" markerHeight="240" markerWidth="190" refY="7" refX="18" class="marker composition class" id="mermaidSvgId_class-compositionStart"><path d="M 18,7 L9,13 L1,7 L9,1 Z"></path></marker></defs><defs><marker orient="auto" markerHeight="28" markerWidth="20" refY="7" refX="1" class="marker composition class" id="mermaidSvgId_class-compositionEnd"><path d="M 18,7 L9,13 L1,7 L9,1 Z"></path></marker></defs><defs><marker orient="auto" markerHeight="240" markerWidth="190" refY="7" refX="6" class="marker dependency class" id="mermaidSvgId_class-dependencyStart"><path d="M 5,7 L9,13 L1,7 L9,1 Z"></path></marker></defs><defs><marker orient="auto" markerHeight="28" markerWidth="20" refY="7" refX="13" class="marker dependency class" id="mermaidSvgId_class-dependencyEnd"><path d="M 18,7 L9,13 L14,7 L9,1 Z"></path></marker></defs><defs><marker orient="auto" markerHeight="240" markerWidth="190" refY="7" refX="13" class="marker lollipop class" id="mermaidSvgId_class-lollipopStart"><circle r="6" cy="7" cx="7" fill="transparent" stroke="black"></circle></marker></defs><defs><marker orient="auto" markerHeight="240" markerWidth="190" refY="7" refX="1" class="marker lollipop class" id="mermaidSvgId_class-lollipopEnd"><circle r="6" cy="7" cx="7" fill="transparent" stroke="black"></circle></marker></defs><g class="root"><g class="clusters"></g><g class="edgePaths"><path marker-start="url(#mermaidSvgId_class-extensionStart)" style=";" class="edge-thickness-normal edge-pattern-solid relation" id="id_SupplierService_RealSupplierService_1" d="M107.491,177.402L105.25,179.512C103.009,181.622,98.527,185.842,96.286,210.212C94.045,234.581,94.045,279.099,94.045,325.535C94.045,371.971,94.045,420.326,99.482,450.587C104.919,480.849,115.794,493.018,121.231,499.103L126.668,505.188"></path><path marker-start="url(#mermaidSvgId_class-extensionStart)" style=";" class="edge-thickness-normal edge-pattern-solid relation" id="id_SupplierService_SupplierProxy_2" d="M300.509,177.402L302.75,179.512C304.991,181.622,309.473,185.842,311.714,192.119C313.955,198.396,313.955,206.729,313.955,210.896L313.955,215.063"></path><path marker-end="url(#mermaidSvgId_class-dependencyEnd)" style=";" class="edge-thickness-normal edge-pattern-solid relation" id="id_SupplierProxy_RealSupplierService_3" d="M313.955,432.172L313.955,438.257C313.955,444.341,313.955,456.51,309.184,467.934C304.413,479.358,294.871,490.036,290.1,495.375L285.33,500.714"></path></g><g class="edgeLabels"><g><rect style="stroke: none" class="background"></rect></g><g><rect style="stroke: none" class="background"></rect></g><g class="edgeLabel"><g transform="translate(0, 0)" class="label"><text y="-10.1"><tspan dy="1.1em" y="-0.1em" x="0" class="text-outer-tspan"></tspan></text></g></g><g class="edgeLabel"><g transform="translate(0, 0)" class="label"><text y="-10.1"><tspan dy="1.1em" y="-0.1em" x="0" class="text-outer-tspan"></tspan></text></g></g><g transform="translate(313.955078125, 468.6796875)" class="edgeLabel"><g transform="translate(-17.2109375, -11.5078125)" class="label"><g><rect height="23.015625" width="34.421875" y="-1.34375" x="-2" style=";display: inline-block" class="background"></rect><text style=";display: inline-block" y="-10.1"><tspan dy="1.1em" y="-0.1em" x="0" class="text-outer-tspan"><tspan font-weight="normal" class="text-inner-tspan" font-style="normal">uses</tspan></tspan></text></g></g></g></g><g class="nodes"><g transform="translate(204, 86.53125)" id="classId-SupplierService-56" class="node default"><g class="basic label-container"><path style="" fill="#ffffff" stroke-width="0" stroke="none" d="M-187.94921875 -78.53125 L187.94921875 -78.53125 L187.94921875 78.53125 L-187.94921875 78.53125"></path><path style="" fill="none" stroke-width="1.3" stroke="#1a468b" d="M-187.94921875 -78.53125 C-104.62433406724772 -78.53125, -21.299449384495432 -78.53125, 187.94921875 -78.53125 M-187.94921875 -78.53125 C-84.89326793490737 -78.53125, 18.16268288018526 -78.53125, 187.94921875 -78.53125 M187.94921875 -78.53125 C187.94921875 -42.75986922448745, 187.94921875 -6.9884884489749055, 187.94921875 78.53125 M187.94921875 -78.53125 C187.94921875 -20.984771704348262, 187.94921875 36.561706591303476, 187.94921875 78.53125 M187.94921875 78.53125 C85.96134504851673 78.53125, -16.026528652966533 78.53125, -187.94921875 78.53125 M187.94921875 78.53125 C73.99161832673653 78.53125, -39.96598209652694 78.53125, -187.94921875 78.53125 M-187.94921875 78.53125 C-187.94921875 17.513760311354723, -187.94921875 -43.503729377290554, -187.94921875 -78.53125 M-187.94921875 78.53125 C-187.94921875 16.848342907292043, -187.94921875 -44.834564185415914, -187.94921875 -78.53125"></path></g><g transform="translate(-41.171875, -58.53125)" class="annotation-group text"><g transform="translate(0,-9.5078125)" style="" class="label"><g><rect style="stroke: none" class="background"></rect><text style="" y="-10.1"><tspan dy="1.1em" y="-0.1em" x="0" class="text-outer-tspan"><tspan font-weight="normal" class="text-inner-tspan" font-style="normal">«interface»</tspan></tspan></text></g></g></g><g transform="translate(-58.3046875, -39.515625)" class="label-group text"><g transform="translate(0,-9.5078125)" style="font-weight: bolder" class="label"><g><rect style="stroke: none" class="background"></rect><text style="" y="-10.1"><tspan font-weight="" dy="1.1em" y="-0.1em" x="0" class="text-outer-tspan"><tspan font-weight="" class="text-inner-tspan" font-style="normal">SupplierService</tspan></tspan></text></g></g></g><g transform="translate(-175.94921875, 3.5)" class="members-group text"></g><g transform="translate(-175.94921875, 33.5)" class="methods-group text"><g transform="translate(0,-9.5078125)" style="" class="label"><g><rect style="stroke: none" class="background"></rect><text style="" y="-10.1"><tspan dy="1.1em" y="-0.1em" x="0" class="text-outer-tspan">+getSuppliers() : List&gt;</tspan></text></g></g><g transform="translate(0,12.5078125)" style="" class="label"><g><rect style="stroke: none" class="background"></rect><text style="" y="-10.1"><tspan dy="1.1em" y="-0.1em" x="0" class="text-outer-tspan">+searchSuppliers(keyword: String) : List&gt;</tspan></text></g></g></g><g style="" class="divider"><path style="" fill="none" stroke-width="1.3" stroke="#1a468b" d="M-187.94921875 -16.5 C-104.24698763595417 -16.5, -20.54475652190834 -16.5, 187.94921875 -16.5 M-187.94921875 -16.5 C-84.77158929529996 -16.5, 18.406040159400078 -16.5, 187.94921875 -16.5"></path></g><g style="" class="divider"><path style="" fill="none" stroke-width="1.3" stroke="#1a468b" d="M-187.94921875 7.5 C-97.10405085941332 7.5, -6.25888296882664 7.5, 187.94921875 7.5 M-187.94921875 7.5 C-98.61787225761474 7.5, -9.28652576522947 7.5, 187.94921875 7.5"></path></g></g><g transform="translate(204, 591.7265625)" id="classId-RealSupplierService-57" class="node default"><g class="basic label-container"><path style="" fill="#ffffff" stroke-width="0" stroke="none" d="M-196 -86.5390625 L196 -86.5390625 L196 86.5390625 L-196 86.5390625"></path><path style="" fill="none" stroke-width="1.3" stroke="#1a468b" d="M-196 -86.5390625 C-67.20913743721542 -86.5390625, 61.581725125569164 -86.5390625, 196 -86.5390625 M-196 -86.5390625 C-83.37123791264898 -86.5390625, 29.25752417470204 -86.5390625, 196 -86.5390625 M196 -86.5390625 C196 -30.156024689242443, 196 26.227013121515114, 196 86.5390625 M196 -86.5390625 C196 -34.0980726768543, 196 18.3429171462914, 196 86.5390625 M196 86.5390625 C60.9922623524925 86.5390625, -74.015475295015 86.5390625, -196 86.5390625 M196 86.5390625 C43.70006401252999 86.5390625, -108.59987197494002 86.5390625, -196 86.5390625 M-196 86.5390625 C-196 38.049194183609494, -196 -10.440674132781012, -196 -86.5390625 M-196 86.5390625 C-196 27.528352911849105, -196 -31.48235667630179, -196 -86.5390625"></path></g><g transform="translate(0, -66.5390625)" class="annotation-group text"></g><g transform="translate(-74.40625, -66.5390625)" class="label-group text"><g transform="translate(0,-9.5078125)" style="font-weight: bolder" class="label"><g><rect style="stroke: none" class="background"></rect><text style="" y="-10.1"><tspan font-weight="" dy="1.1em" y="-0.1em" x="0" class="text-outer-tspan"><tspan font-weight="" class="text-inner-tspan" font-style="normal">RealSupplierService</tspan></tspan></text></g></g></g><g transform="translate(-184, -23.5234375)" class="members-group text"><g transform="translate(0,-9.5078125)" style="" class="label"><g><rect style="stroke: none" class="background"></rect><text style="" y="-10.1"><tspan dy="1.1em" y="-0.1em" x="0" class="text-outer-tspan"><tspan font-weight="normal" class="text-inner-tspan" font-style="normal">-DataBaseConnection</tspan><tspan font-weight="normal" class="text-inner-tspan" font-style="normal"> db</tspan></tspan></text></g></g></g><g transform="translate(-184, 19.4921875)" class="methods-group text"><g transform="translate(0,-9.5078125)" style="" class="label"><g><rect style="stroke: none" class="background"></rect><text style="" y="-10.1"><tspan dy="1.1em" y="-0.1em" x="0" class="text-outer-tspan"><tspan font-weight="normal" class="text-inner-tspan" font-style="normal">+RealSupplierService(dbPath:</tspan><tspan font-weight="normal" class="text-inner-tspan" font-style="normal"> String)</tspan></tspan></text></g></g><g transform="translate(0,12.5078125)" style="" class="label"><g><rect style="stroke: none" class="background"></rect><text style="" y="-10.1"><tspan dy="1.1em" y="-0.1em" x="0" class="text-outer-tspan">+getSuppliers() : List&gt;</tspan></text></g></g><g transform="translate(0,34.5234375)" style="" class="label"><g><rect style="stroke: none" class="background"></rect><text style="" y="-10.1"><tspan dy="1.1em" y="-0.1em" x="0" class="text-outer-tspan">+searchSuppliers(keyword: String) : List&gt;</tspan></text></g></g></g><g style="" class="divider"><path style="" fill="none" stroke-width="1.3" stroke="#1a468b" d="M-196 -43.5234375 C-54.07082652866859 -43.5234375, 87.85834694266282 -43.5234375, 196 -43.5234375 M-196 -43.5234375 C-47.75375673330345 -43.5234375, 100.4924865333931 -43.5234375, 196 -43.5234375"></path></g><g style="" class="divider"><path style="" fill="none" stroke-width="1.3" stroke="#1a468b" d="M-196 -0.5078125 C-80.17306781895753 -0.5078125, 35.65386436208493 -0.5078125, 196 -0.5078125 M-196 -0.5078125 C-90.37792672527743 -0.5078125, 15.244146549445134 -0.5078125, 196 -0.5078125"></path></g></g><g transform="translate(313.955078125, 323.6171875)" id="classId-SupplierProxy-58" class="node default"><g class="basic label-container"><path style="" fill="#ffffff" stroke-width="0" stroke="none" d="M-184.91015625 -108.5546875 L184.91015625 -108.5546875 L184.91015625 108.5546875 L-184.91015625 108.5546875"></path><path style="" fill="none" stroke-width="1.3" stroke="#1a468b" d="M-184.91015625 -108.5546875 C-97.90541303889877 -108.5546875, -10.900669827797543 -108.5546875, 184.91015625 -108.5546875 M-184.91015625 -108.5546875 C-97.14543978537901 -108.5546875, -9.380723320758023 -108.5546875, 184.91015625 -108.5546875 M184.91015625 -108.5546875 C184.91015625 -48.13873757132573, 184.91015625 12.277212357348546, 184.91015625 108.5546875 M184.91015625 -108.5546875 C184.91015625 -58.20539992854619, 184.91015625 -7.856112357092385, 184.91015625 108.5546875 M184.91015625 108.5546875 C46.2167330502335 108.5546875, -92.476690149533 108.5546875, -184.91015625 108.5546875 M184.91015625 108.5546875 C69.1830318983123 108.5546875, -46.54409245337541 108.5546875, -184.91015625 108.5546875 M-184.91015625 108.5546875 C-184.91015625 24.284581697498325, -184.91015625 -59.98552410500335, -184.91015625 -108.5546875 M-184.91015625 108.5546875 C-184.91015625 55.50299897078845, -184.91015625 2.4513104415768936, -184.91015625 -108.5546875"></path></g><g transform="translate(0, -88.5546875)" class="annotation-group text"></g><g transform="translate(-52.2265625, -88.5546875)" class="label-group text"><g transform="translate(0,-9.5078125)" style="font-weight: bolder" class="label"><g><rect style="stroke: none" class="background"></rect><text style="" y="-10.1"><tspan font-weight="" dy="1.1em" y="-0.1em" x="0" class="text-outer-tspan"><tspan font-weight="" class="text-inner-tspan" font-style="normal">SupplierProxy</tspan></tspan></text></g></g></g><g transform="translate(-172.91015625, -45.5390625)" class="members-group text"><g transform="translate(0,-9.5078125)" style="" class="label"><g><rect style="stroke: none" class="background"></rect><text style="" y="-10.1"><tspan dy="1.1em" y="-0.1em" x="0" class="text-outer-tspan"><tspan font-weight="normal" class="text-inner-tspan" font-style="normal">-RealSupplierService</tspan><tspan font-weight="normal" class="text-inner-tspan" font-style="normal"> realService</tspan></tspan></text></g></g><g transform="translate(0,12.5078125)" style="" class="label"><g><rect style="stroke: none" class="background"></rect><text style="" y="-10.1"><tspan dy="1.1em" y="-0.1em" x="0" class="text-outer-tspan"><tspan font-weight="normal" class="text-inner-tspan" font-style="normal">-String</tspan><tspan font-weight="normal" class="text-inner-tspan" font-style="normal"> dbPath</tspan></tspan></text></g></g></g><g transform="translate(-172.91015625, 19.4921875)" class="methods-group text"><g transform="translate(0,-9.5078125)" style="" class="label"><g><rect style="stroke: none" class="background"></rect><text style="" y="-10.1"><tspan dy="1.1em" y="-0.1em" x="0" class="text-outer-tspan"><tspan font-weight="normal" class="text-inner-tspan" font-style="normal">+SupplierProxy(dbPath:</tspan><tspan font-weight="normal" class="text-inner-tspan" font-style="normal"> String)</tspan></tspan></text></g></g><g transform="translate(0,12.5078125)" style="" class="label"><g><rect style="stroke: none" class="background"></rect><text style="" y="-10.1"><tspan dy="1.1em" y="-0.1em" x="0" class="text-outer-tspan"><tspan font-weight="normal" class="text-inner-tspan" font-style="normal">+getRealService()</tspan><tspan font-weight="normal" class="text-inner-tspan" font-style="normal"> :</tspan><tspan font-weight="normal" class="text-inner-tspan" font-style="normal"> RealSupplierService</tspan></tspan></text></g></g><g transform="translate(0,34.5234375)" style="" class="label"><g><rect style="stroke: none" class="background"></rect><text style="" y="-10.1"><tspan dy="1.1em" y="-0.1em" x="0" class="text-outer-tspan">+getSuppliers() : List&gt;</tspan></text></g></g><g transform="translate(0,56.5390625)" style="" class="label"><g><rect style="stroke: none" class="background"></rect><text style="" y="-10.1"><tspan dy="1.1em" y="-0.1em" x="0" class="text-outer-tspan">+searchSuppliers(keyword: String) : List&gt;</tspan></text></g></g></g><g style="" class="divider"><path style="" fill="none" stroke-width="1.3" stroke="#1a468b" d="M-184.91015625 -65.5390625 C-76.24131721579457 -65.5390625, 32.42752181841087 -65.5390625, 184.91015625 -65.5390625 M-184.91015625 -65.5390625 C-57.196997951295984 -65.5390625, 70.51616034740803 -65.5390625, 184.91015625 -65.5390625"></path></g><g style="" class="divider"><path style="" fill="none" stroke-width="1.3" stroke="#1a468b" d="M-184.91015625 -0.5078125 C-88.00210765860388 -0.5078125, 8.905940932792248 -0.5078125, 184.91015625 -0.5078125 M-184.91015625 -0.5078125 C-43.418639460019904 -0.5078125, 98.07287732996019 -0.5078125, 184.91015625 -0.5078125"></path></g></g></g></g></g></svg>